<?xml version="1.0" standalone="no"?>
<!DOCTYPE svg PUBLIC "-//W3C//DTD SVG 20010904//EN"
 "http://www.w3.org/TR/2001/REC-SVG-20010904/DTD/svg10.dtd">
<svg version="1.0" xmlns="http://www.w3.org/2000/svg"
 width="504.000000pt" height="504.000000pt" viewBox="0 0 504.000000 504.000000"
 preserveAspectRatio="xMidYMid meet">
<metadata>
Created by potrace 1.11, written by Peter Selinger 2001-2013
</metadata>
<g transform="translate(0.000000,504.000000) scale(0.100000,-0.100000)"
fill="#000000" stroke="none">
<path d="M443 5026 c-8 -13 -7 -2525 1 -2631 27 -350 186 -725 463 -1090 118
-154 176 -219 349 -391 349 -347 800 -682 1164 -866 l99 -49 38 17 c32 15 180
100 258 147 39 24 390 260 395 266 3 3 23 19 45 36 22 16 42 31 45 35 3 3 23
18 45 35 194 143 509 439 672 631 158 186 186 224 307 417 128 204 245 513
271 717 3 25 8 61 10 80 7 50 6 2642 0 2648 -9 10 -4157 8 -4162 -2z"/>
</g>
</svg>
